{
  "accessors": [
    {
      "bufferView": 2,
      "componentType": 5126,
      "count": 2355,
      "max": [
        2.8058199882507324,
        2.140500068664551,
        5.753910064697266
      ],
      "min": [
        -2.6187500953674316,
        -0.911620020866394,
        0.07665999978780746
      ],
      "type": "VEC3"
    },
    {
      "bufferView": 2,
      "byteOffset": 28260,
      "componentType": 5126,
      "count": 2355,
      "max": [
        0.9999931454658508,
        0.9998617768287659,
        0.9999396204948425
      ],
      "min": [
        -0.9999931454658508,
        -0.9999590516090393,
        -0.9996427297592163
      ],
      "type": "VEC3"
    },
    {
      "bufferView": 1,
      "componentType": 5126,
      "count": 2355,
      "max": [
        0.9894300103187561,
        0.9963200092315674
      ],
      "min": [
        0.010990000329911709,
        0.011009999550879002
      ],
      "type": "VEC2"
    },
    {
      "bufferView": 1,
      "byteOffset": 18840,
      "componentType": 5126,
      "count": 2355,
      "max": [
        0.9894300103187561,
        0.9963200092315674
      ],
      "min": [
        0.010990000329911709,
        0.011009999550879002
      ],
      "type": "VEC2"
    },
    {
      "bufferView": 1,
      "byteOffset": 37680,
      "componentType": 5126,
      "count": 2355,
      "max": [
        0.9894300103187561,
        0.9963200092315674
      ],
      "min": [
        0.010990000329911709,
        0.011009999550879002
      ],
      "type": "VEC2"
    },
    {
      "bufferView": 1,
      "byteOffset": 56520,
      "componentType": 5126,
      "count": 2355,
      "max": [
        0.9894300103187561,
        0.9963200092315674
      ],
      "min": [
        0.010990000329911709,
        0.011009999550879002
      ],
      "type": "VEC2"
    },
    {
      "bufferView": 0,
      "componentType": 5125,
      "count": 10572,
      "type": "SCALAR"
    },
    {
      "bufferView": 2,
      "byteOffset": 56520,
      "componentType": 5126,
      "count": 677,
      "max": [
        0.8776999711990356,
        0.5954899787902832,
        6.757659912109375
      ],
      "min": [
        -0.8090400099754333,
        -1.518399953842163,
        5.0218000411987305
      ],
      "type": "VEC3"
    },
    {
      "bufferView": 2,
      "byteOffset": 64644,
      "componentType": 5126,
      "count": 677,
      "max": [
        0.9992617964744568,
        0.987599790096283,
        0.9999396204948425
      ],
      "min": [
        -0.9992617964744568,
        -0.9923709034919739,
        -0.9954770803451538
      ],
      "type": "VEC3"
    },
    {
      "bufferView": 1,
      "byteOffset": 75360,
      "componentType": 5126,
      "count": 677,
      "max": [
        0.8978400230407715,
        0.9959800243377686
      ],
      "min": [
        0.010479999706149101,
        0.1320199966430664
      ],
      "type": "VEC2"
    },
    {
      "bufferView": 1,
      "byteOffset": 80776,
      "componentType": 5126,
      "count": 677,
      "max": [
        0.8978400230407715,
        0.9959800243377686
      ],
      "min": [
        0.010479999706149101,
        0.1320199966430664
      ],
      "type": "VEC2"
    },
    {
      "bufferView": 1,
      "byteOffset": 86192,
      "componentType": 5126,
      "count": 677,
      "max": [
        0.8978400230407715,
        0.9959800243377686
      ],
      "min": [
        0.010479999706149101,
        0.1320199966430664
      ],
      "type": "VEC2"
    },
    {
      "bufferView": 1,
      "byteOffset": 91608,
      "componentType": 5126,
      "count": 677,
      "max": [
        0.8978400230407715,
        0.9959800243377686
      ],
      "min": [
        0.010479999706149101,
        0.1320199966430664
      ],
      "type": "VEC2"
    },
    {
      "bufferView": 0,
      "byteOffset": 42288,
      "componentType": 5125,
      "count": 2928,
      "type": "SCALAR"
    },
    {
      "bufferView": 2,
      "byteOffset": 72768,
      "componentType": 5126,
      "count": 306,
      "max": [
        1.0646400451660156,
        0.6455299854278564,
        6.668769836425781
      ],
      "min": [
        -0.995989978313446,
        -0.8340200185775757,
        5.092050075531006
      ],
      "type": "VEC3"
    },
    {
      "bufferView": 2,
      "byteOffset": 76440,
      "componentType": 5126,
      "count": 306,
      "max": [
        0.918928325176239,
        0.9363448619842529,
        0.9748316407203674
      ],
      "min": [
        -0.918928325176239,
        -0.9904096126556396,
        -0.9468033909797668
      ],
      "type": "VEC3"
    },
    {
      "bufferView": 1,
      "byteOffset": 97024,
      "componentType": 5126,
      "count": 306,
      "max": [
        0.9888200163841248,
        0.9877399802207947
      ],
      "min": [
        0.006310000084340572,
        0.00810999982059002
      ],
      "type": "VEC2"
    },
    {
      "bufferView": 1,
      "byteOffset": 99472,
      "componentType": 5126,
      "count": 306,
      "max": [
        0.9888200163841248,
        0.9877399802207947
      ],
      "min": [
        0.006310000084340572,
        0.00810999982059002
      ],
      "type": "VEC2"
    },
    {
      "bufferView": 1,
      "byteOffset": 101920,
      "componentType": 5126,
      "count": 306,
      "max": [
        0.9888200163841248,
        0.9877399802207947
      ],
      "min": [
        0.006310000084340572,
        0.00810999982059002
      ],
      "type": "VEC2"
    },
    {
      "bufferView": 1,
      "byteOffset": 104368,
      "componentType": 5126,
      "count": 306,
      "max": [
        0.9888200163841248,
        0.9877399802207947
      ],
      "min": [
        0.006310000084340572,
        0.00810999982059002
      ],
      "type": "VEC2"
    },
    {
      "bufferView": 0,
      "byteOffset": 54000,
      "componentType": 5125,
      "count": 684,
      "type": "SCALAR"
    }
  ],
  "asset": {
    "extras": {
      "author": "Justin Ethington (https://sketchfab.com/dragon7350)",
      "license": "CC-BY-4.0 (http://creativecommons.org/licenses/by/4.0/)",
      "source": "https://sketchfab.com/3d-models/rocket-raccoon-ut-2004-skin-6f16abdd90814a91a6a7e534164baf01",
      "title": "Rocket Raccoon Ut 2004 Skin"
    },
    "generator": "Sketchfab-12.66.0",
    "version": "2.0"
  },
  "bufferViews": [
    {
      "buffer": 0,
      "byteLength": 56736,
      "name": "floatBufferViews",
      "target": 34963
    },
    {
      "buffer": 0,
      "byteLength": 106816,
      "byteOffset": 56736,
      "byteStride": 8,
      "name": "floatBufferViews",
      "target": 34962
    },
    {
      "buffer": 0,
      "byteLength": 80112,
      "byteOffset": 163552,
      "byteStride": 12,
      "name": "floatBufferViews",
      "target": 34962
    }
  ],
  "buffers": [
    {
      "byteLength": 243664,
      "uri": "scene.bin"
    }
  ],
  "images": [
    {
      "uri": "textures/Body_baseColor.png"
    },
    {
      "uri": "textures/Body_metallicRoughness.png"
    },
    {
      "uri": "textures/Head_baseColor.png"
    },
    {
      "uri": "textures/Head_metallicRoughness.png"
    },
    {
      "uri": "textures/HeadAlpha_baseColor.png"
    },
    {
      "uri": "textures/HeadAlpha_metallicRoughness.png"
    }
  ],
  "materials": [
    {
      "name": "Body",
      "pbrMetallicRoughness": {
        "baseColorTexture": {
          "index": 0
        },
        "metallicFactor": 0.0,
        "metallicRoughnessTexture": {
          "index": 1
        }
      }
    },
    {
      "name": "Head",
      "pbrMetallicRoughness": {
        "baseColorTexture": {
          "index": 2
        },
        "metallicFactor": 0.0,
        "metallicRoughnessTexture": {
          "index": 3
        }
      }
    },
    {
      "alphaCutoff": 0.52,
      "alphaMode": "MASK",
      "doubleSided": true,
      "name": "HeadAlpha",
      "pbrMetallicRoughness": {
        "baseColorTexture": {
          "index": 4
        },
        "metallicFactor": 0.0,
        "metallicRoughnessTexture": {
          "index": 5
        }
      }
    }
  ],
  "meshes": [
    {
      "name": "Rocket",
      "primitives": [
        {
          "attributes": {
            "NORMAL": 1,
            "POSITION": 0,
            "TEXCOORD_0": 2,
            "TEXCOORD_1": 3,
            "TEXCOORD_2": 4,
            "TEXCOORD_3": 5
          },
          "indices": 6,
          "material": 0,
          "mode": 4
        }
      ]
    },
    {
      "name": "Rocket",
      "primitives": [
        {
          "attributes": {
            "NORMAL": 8,
            "POSITION": 7,
            "TEXCOORD_0": 9,
            "TEXCOORD_1": 10,
            "TEXCOORD_2": 11,
            "TEXCOORD_3": 12
          },
          "indices": 13,
          "material": 1,
          "mode": 4
        }
      ]
    },
    {
      "name": "Rocket",
      "primitives": [
        {
          "attributes": {
            "NORMAL": 15,
            "POSITION": 14,
            "TEXCOORD_0": 16,
            "TEXCOORD_1": 17,
            "TEXCOORD_2": 18,
            "TEXCOORD_3": 19
          },
          "indices": 20,
          "material": 2,
          "mode": 4
        }
      ]
    }
  ],
  "nodes": [
    {
      "children": [
        1
      ],
      "matrix": [
        0.2382226586341858,
        0.0,
        0.0,
        0.0,
        0.0,
        5.289605612061838e-17,
        -0.2382226586341858,
        0.0,
        0.0,
        0.2382226586341858,
        5.289605612061838e-17,
        0.0,
        0.0,
        0.0,
        0.0,
        1.0
      ],
      "name": "Sketchfab_model"
    },
    {
      "children": [
        2
      ],
      "name": "Root"
    },
    {
      "children": [
        3,
        4,
        5
      ],
      "name": "Rocket"
    },
    {
      "mesh": 0,
      "name": "Rocket"
    },
    {
      "mesh": 1,
      "name": "Rocket"
    },
    {
      "mesh": 2,
      "name": "Rocket"
    }
  ],
  "samplers": [
    {
      "magFilter": 9729,
      "minFilter": 9987,
      "wrapS": 10497,
      "wrapT": 10497
    }
  ],
  "scene": 0,
  "scenes": [
    {
      "name": "Sketchfab_Scene",
      "nodes": [
        0
      ]
    }
  ],
  "textures": [
    {
      "sampler": 0,
      "source": 0
    },
    {
      "sampler": 0,
      "source": 1
    },
    {
      "sampler": 0,
      "source": 2
    },
    {
      "sampler": 0,
      "source": 3
    },
    {
      "sampler": 0,
      "source": 4
    },
    {
      "sampler": 0,
      "source": 5
    }
  ]
}
